<?xml version="1.0" encoding="UTF-8" standalone="no"?>
<svg
   xmlns:dc="http://purl.org/dc/elements/1.1/"
   xmlns:cc="http://creativecommons.org/ns#"
   xmlns:rdf="http://www.w3.org/1999/02/22-rdf-syntax-ns#"
   xmlns:svg="http://www.w3.org/2000/svg"
   xmlns="http://www.w3.org/2000/svg"
   version="1.1"
   id="svg4920"
   viewBox="0 0 345.97037 280.82106"
   height="79.253944mm"
   width="97.640526mm">
  <defs
     id="defs4922">
    <radialGradient
       gradientTransform="matrix(1.1139516,0,0,1.1139516,-1.917738e-5,143.25541)"
       gradientUnits="userSpaceOnUse"
       r="120.1318"
       cy="175.2041"
       cx="228.2988"
       id="SVGID_1_">
      <stop
         id="stop4647"
         style="stop-color:#FAED24"
         offset="0" />
      <stop
         id="stop4649"
         style="stop-color:#FAA51A"
         offset="1" />
    </radialGradient>
  </defs>
  <metadata
     id="metadata4925">
    <rdf:RDF>
      <cc:Work
         rdf:about="">
        <dc:format>image/svg+xml</dc:format>
        <dc:type
           rdf:resource="http://purl.org/dc/dcmitype/StillImage" />
        <dc:title></dc:title>
      </cc:Work>
    </rdf:RDF>
  </metadata>
  <g
     transform="translate(-9.1576718,-7.6659517)"
     id="layer1">
    <g
       transform="matrix(0.8977051,0,0,0.8977051,9.1576718,-120.93516)"
       id="g5301">
      <g
         id="g5289">
        <g
           id="g4634"
           transform="translate(-36.333,112.78817)">
          <g
             id="g5286">
            <path
               style="clip-rule:evenodd;fill:#333333;fill-rule:evenodd"
               d="m 84.107,180.852 c 8.314,3.954 16.407,9.29 25.86,9.941 1.562,4.192 2.002,9.09 2.965,13.262 -7.86,4.998 -15.432,11.931 -19.873,20.426 0.606,3.542 2.244,6.745 3.798,9.869 9.029,3.232 19.62,1.856 29.021,0.874 2.34,3.464 5.057,6.731 6.893,10.621 -4.822,8.113 -9.021,16.476 -10.645,25.551 1.123,3.659 5.09,7.757 8.852,8.814 9.154,-1.729 17.766,-5.808 25.84,-10.463 3.76,1.791 6.833,4.431 10.319,6.623 -0.794,9.499 -2.64,19.884 0.821,29.07 3.291,1.752 6.756,3.813 10.67,3.859 7.645,-5.109 14.702,-11.698 19.215,-19.571 4.121,-0.305 8.651,1.833 13.112,2.053 2.237,9.325 5.529,18.52 11.126,26.589 3.275,1.246 7.684,0.585 11.244,0.384 5.62,-7.911 9.668,-16.869 10.99,-26.419 4.336,-1.17 9.336,-2.644 13.66,-2.573 4.473,7.642 11.349,14.072 18.59,19.367 4.162,0.557 7.789,-1.926 11.309,-3.685 3.248,-9.08 1.656,-19.577 0.873,-29.019 3.467,-2.345 6.729,-5.06 10.618,-6.894 7.622,5.181 15.903,8.636 24.747,10.641 3.964,-1.093 7.387,-5.479 9.551,-8.836 -1.94,-9.077 -5.445,-17.559 -10.606,-25.405 1.743,-3.991 4.599,-7.119 6.836,-10.766 9.474,1.176 19.96,2.323 29.07,-0.822 1.522,-3.068 3.191,-6.324 3.858,-9.864 -4.49,-8.371 -12.144,-15.229 -20.015,-20.39 0.907,-4.285 1.979,-8.764 2.498,-13.297 9.978,-0.784 18.746,-5.563 26.982,-10.929 0.351,-3.571 0.444,-7.372 -0.006,-10.889 -8.146,-5.589 -17.23,-9.67 -26.977,-10.99 -0.606,-4.514 -1.655,-9.018 -2.411,-13.262 7.798,-4.939 15.116,-11.757 19.874,-19.681 -0.306,-3.771 -2.166,-7.262 -3.799,-10.613 -9.102,-2.956 -19.576,-2.423 -28.843,-0.368 -2.464,-3.563 -5.472,-7.167 -7.083,-11.144 5.231,-7.406 8.379,-16.021 10.656,-24.729 -1.095,-3.967 -5.474,-7.374 -8.835,-9.548 -9.008,1.707 -17.535,5.713 -25.424,10.595 -3.924,-1.361 -7.281,-4.583 -10.876,-6.694 1.189,-9.415 2.465,-20.023 -0.694,-29.203 -2.7,-1.29 -5.638,-2.498 -8.314,-3.808 -9.598,2.479 -16.42,12.081 -21.936,19.953 -4.44,-0.359 -8.739,-2.07 -13.305,-2.487 -1.158,-9.33 -5.014,-17.835 -10.123,-25.674 -3.783,-1.418 -8.498,-0.689 -12.485,-0.482 -4.808,8.135 -9.198,16.594 -10.198,26.156 -4.551,0.443 -8.766,2.063 -13.248,2.412 -4.801,-7.641 -11.803,-14.098 -19.002,-19.759 -4.232,-0.853 -7.511,2.511 -11.299,3.684 -3.018,8.975 -2.317,19.494 -0.447,28.808 -3.324,2.859 -7.413,4.914 -10.875,7.561 -7.684,-5.412 -16.605,-9.204 -25.732,-11.099 -3.688,0.858 -6.832,4.921 -8.756,8.029 1.11,9.891 6.428,18.609 10.41,27.465 -2.371,3.33 -4.718,6.819 -6.681,10.289 -9.085,-2.639 -19.845,-2.837 -29.017,0.047 -1.63,3.331 -3.486,6.848 -3.859,10.675 5.054,7.909 11.904,14.861 20.016,19.585 -0.998,4.305 -1.796,8.807 -2.497,13.292 -9.247,1.21 -17.817,5.022 -25.674,10.125 -1.595,3.89 -0.337,8.55 -0.739,12.743"
               id="path4636" />
          </g>
          <g
             id="g4638"
             display="none"
             style="display:none">
            <path
               id="path4640"
               d="m 208.522,100.062 c 2.408,3.564 4.666,7.745 7.211,12.176 2.102,3.656 3.809,8.788 6.754,11.835 3.133,3.245 12.113,7.968 16.928,10.537 3.225,1.724 6.812,2.506 10.074,4.457 5.191,3.104 10.124,6.961 15.769,10.097 3.231,1.796 6.862,4.285 8.875,4.858 9.37,2.672 19.741,-1.445 28.658,-0.089 1.761,-3.654 5.173,-6.545 6.659,-10.305 -12.82,-38.521 -56.199,-63.24 -95.826,-55.433 -1.686,3.874 -4.19,7.595 -5.102,11.867"
               display="inline"
               style="clip-rule:evenodd;display:inline;fill:#010101;fill-rule:evenodd" />
            <path
               id="path4642"
               d="m 141.063,185.297 c 2.222,15.979 8.167,32.375 19.365,44.34 3.853,-0.867 8.109,0.49 11.855,-1.036 2.789,-3.449 4.947,-7.753 7.344,-11.952 2.191,-3.838 5.6,-7.669 6.914,-11.729 1.607,-4.965 1.277,-15.594 0.988,-22.462 -0.217,-5.123 -0.303,-9.657 -0.051,-15.378 0.34,-7.692 0.721,-17.744 -1.023,-23.138 -2.422,-7.496 -10.4,-16.165 -14.23,-23.743 -3.68,-1.552 -7.982,-0.227 -11.777,-1.028 -16.155,17.559 -21.918,42.444 -19.385,66.126"
               display="inline"
               style="clip-rule:evenodd;display:inline;fill:#010101;fill-rule:evenodd" />
            <path
               id="path4644"
               d="m 209.331,251.14 c -0.656,-4.556 3.215,-8.846 5.596,-12.983 2.346,-4.085 4.436,-9.665 7.525,-12.927 5.939,-6.272 16.93,-9.35 27.05,-15.52 7.53,-4.59 15.964,-12.054 23.654,-14.135 10.011,-2.709 21.469,1.509 29.649,0.062 2.348,3.322 5.57,6.376 6.699,10.29 -13.765,37.704 -56.406,62.812 -95.879,54.651 -1.289,-3.233 -3.55,-6.046 -4.294,-9.438"
               display="inline"
               style="clip-rule:evenodd;display:inline;fill:#010101;fill-rule:evenodd" />
          </g>
        </g>
        <path
           id="path4651"
           d="m 302.953,333.96517 -33.436,-21.993 c 1.628,-5.273 2.722,-10.779 3.244,-16.45 l 39.336,-7.53 -39.336,-7.529 c -0.522,-5.672 -1.615,-11.177 -3.244,-16.45 l 33.436,-21.994 -39.213,8.095 c -2.63,-4.973 -5.751,-9.644 -9.316,-13.937 l 22.486,-33.133 -33.133,22.487 c -4.292,-3.564 -8.963,-6.685 -13.935,-9.314 l 8.096,-39.213 -21.994,33.436 c -5.272,-1.628 -10.778,-2.722 -16.45,-3.244 l -7.528,-39.336 -7.53,39.337 c -5.672,0.522 -11.177,1.616 -16.449,3.244 l -21.993,-33.436 8.095,39.214 c -4.972,2.629 -9.643,5.75 -13.935,9.314 l -33.135,-22.488 22.488,33.135 c -3.564,4.292 -6.685,8.963 -9.313,13.935 l -39.214,-8.095 33.437,21.995 c -1.629,5.272 -2.722,10.777 -3.244,16.448 l -39.338,7.53 39.338,7.531 c 0.522,5.67 1.615,11.176 3.244,16.447 l -33.437,21.995 39.214,-8.096 c 2.629,4.972 5.749,9.642 9.313,13.934 l -22.488,33.135 33.136,-22.487 c 4.291,3.564 8.962,6.685 13.934,9.313 l -8.095,39.215 21.993,-33.438 c 5.273,1.628 10.777,2.722 16.449,3.244 l 7.53,39.339 7.528,-39.339 c 5.672,-0.522 11.177,-1.615 16.449,-3.244 l 21.995,33.438 -8.096,-39.214 c 4.972,-2.629 9.642,-5.749 13.935,-9.313 l 33.133,22.486 -22.486,-33.132 c 3.565,-4.293 6.686,-8.964 9.316,-13.936 l 39.213,8.094 z"
           style="clip-rule:evenodd;fill:url(#SVGID_1_);fill-rule:evenodd" />
        <rect
           style="opacity:1;fill:#ffffff;fill-opacity:1;stroke:none;stroke-width:0.40000001;stroke-miterlimit:4;stroke-dasharray:none;stroke-opacity:1"
           id="rect5299"
           width="332"
           height="168"
           x="29"
           y="288.07648" />
      </g>
      <g
         transform="translate(-36.333,112.78817)"
         id="g4653">
        <g
           id="g4655">
          <path
             style="clip-rule:evenodd;fill:#333333;fill-rule:evenodd"
             d="m 420.333,191 c 0,5.523 -4.478,10 -10,10 l -364,0 c -5.523,0 -10,-4.477 -10,-10 l 0,-33 c 0,-5.523 4.477,-10 10,-10 l 364,0 c 5.522,0 10,4.477 10,10 l 0,33 z"
             id="path4657" />
        </g>
        <text
           transform="translate(48.2568,190.6753)"
           font-size="46.8561"
           id="text4659"
           style="font-size:46.85609818px;font-family:MicroExtendFLF-Bold;fill:#ffffff">
          <tspan
             style="font-style:normal;font-variant:normal;font-weight:bold;font-stretch:normal;font-family:MicroExtendFLF;-inkscape-font-specification:'MicroExtendFLF Bold'"
             id="tspan5213">TECHSPACE</tspan>
        </text>
      </g>
      <g
         transform="translate(-36.333,112.78817)"
         id="g4661">
        <path
           style="clip-rule:evenodd;fill:#333333;fill-rule:evenodd"
           d="m 294.105,149.903 c 0.676,2.666 -1.022,5.097 -3.772,5.097 l -124.068,0 c -2.75,0 -4.448,-2.431 -3.773,-5.097 l 2.546,-10.056 c 0.675,-2.666 3.477,-4.847 6.227,-4.847 l 114.068,0 c 2.75,0 5.552,2.181 6.228,4.847 l 2.544,10.056 z"
           id="path4663" />
      </g>
      <text
         transform="scale(0.89125678,1.1220111)"
         font-size="17.2793"
         id="text4665"
         style="font-size:15.4002943px;font-family:MicroFLF-Bold;fill:#ffffff"
         x="150.51175"
         y="235.44505">
        <tspan
           style="font-style:normal;font-variant:normal;font-weight:bold;font-stretch:normal;font-family:MicroExtendFLF;-inkscape-font-specification:'MicroExtendFLF Bold'"
           id="tspan5215">GOLD COAST</tspan>
      </text>
    </g>
    <g
       transform="matrix(1.1674732,0,0,1.1674732,366.00755,-199.60906)"
       id="g4250">
      <g
         id="g4235"
         transform="matrix(0.64760208,0,0,0.64760208,-92.019668,100.17707)">
        <path
           style="opacity:1;fill:#333333;fill-opacity:1;stroke:none;stroke-width:0.40000001;stroke-miterlimit:4;stroke-dasharray:none;stroke-opacity:1"
           id="path4244"
           d="m -323,393.37305 a 5.7045671,5.7045671 0 0 0 -5.70312,5.70312 l 0,66 A 5.7045671,5.7045671 0 0 0 -323,470.7793 l 445,0 a 5.7045671,5.7045671 0 0 0 5.70312,-5.70313 l 0,-66 A 5.7045671,5.7045671 0 0 0 122,393.37305 l -445,0 z" />
        <text
           id="text4229"
           y="447.82889"
           x="-304.08521"
           style="font-style:normal;font-variant:normal;font-weight:bold;font-stretch:normal;font-size:44.28543091px;line-height:125%;font-family:MicroExtendFLF;-inkscape-font-specification:'MicroExtendFLF Bold';letter-spacing:0px;word-spacing:0px;fill:#ffffff;fill-opacity:1;stroke:none;stroke-width:1px;stroke-linecap:butt;stroke-linejoin:miter;stroke-opacity:1"
           xml:space="preserve"><tspan
             y="447.82889"
             x="-304.08521"
             id="tspan4231">BARCAMP #14</tspan></text>
      </g>
      <text
         xml:space="preserve"
         style="font-style:normal;font-weight:normal;font-size:13.36554241px;line-height:125%;font-family:sans-serif;letter-spacing:0px;word-spacing:0px;fill:#333333;fill-opacity:1;stroke:none;stroke-width:1px;stroke-linecap:butt;stroke-linejoin:miter;stroke-opacity:1"
         x="-305.45721"
         y="339.63922"
         id="text4246"><tspan
           id="tspan4248"
           x="-305.45721"
           y="339.63922"
           style="font-style:normal;font-variant:normal;font-weight:bold;font-stretch:normal;font-size:26.73108482px;font-family:MicroExtendFLF;-inkscape-font-specification:'MicroExtendFLF Bold';fill:#333333;fill-opacity:1">SCIENCE &amp; TECH</tspan></text>
    </g>
  </g>
</svg>
